# Blender v2.75 (sub 0) OBJ File: ''
# www.blender.org
mtllib skygradient.mtl
o Cylinder
v 0.000000 -1.000000 -6.800000
v 0.000000 1.000000 -6.800000
v 1.326614 -1.000000 -6.669340
v 1.326614 1.000000 -6.669340
v 2.602247 -1.000000 -6.282381
v 2.602247 1.000000 -6.282381
v 3.777878 -1.000000 -5.653993
v 3.777878 1.000000 -5.653993
v 4.808326 -1.000000 -4.808326
v 4.808326 1.000000 -4.808326
v 5.653994 -1.000000 -3.777877
v 5.653994 1.000000 -3.777877
v 6.282381 -1.000000 -2.602247
v 6.282381 1.000000 -2.602247
v 6.669340 -1.000000 -1.326614
v 6.669340 1.000000 -1.326614
v 6.800000 -1.000000 -0.000001
v 6.800000 1.000000 -0.000001
v 6.669340 -1.000000 1.326613
v 6.669340 1.000000 1.326613
v 6.282381 -1.000000 2.602246
v 6.282381 1.000000 2.602246
v 5.653994 -1.000000 3.777877
v 5.653994 1.000000 3.777877
v 4.808326 -1.000000 4.808326
v 4.808326 1.000000 4.808326
v 3.777877 -1.000000 5.653994
v 3.777877 1.000000 5.653994
v 2.602246 -1.000000 6.282381
v 2.602246 1.000000 6.282381
v 1.326612 -1.000000 6.669340
v 1.326612 1.000000 6.669340
v -0.000002 -1.000000 6.800000
v -0.000002 1.000000 6.800000
v -1.326617 -1.000000 6.669339
v -1.326617 1.000000 6.669339
v -2.602250 -1.000000 6.282379
v -2.602250 1.000000 6.282379
v -3.777881 -1.000000 5.653991
v -3.777881 1.000000 5.653991
v -4.808329 -1.000000 4.808323
v -4.808329 1.000000 4.808323
v -5.653996 -1.000000 3.777874
v -5.653996 1.000000 3.777874
v -6.282383 -1.000000 2.602242
v -6.282383 1.000000 2.602242
v -6.669341 -1.000000 1.326608
v -6.669341 1.000000 1.326608
v -6.800000 -1.000000 -0.000007
v -6.800000 1.000000 -0.000007
v -6.669338 -1.000000 -1.326621
v -6.669338 1.000000 -1.326621
v -6.282378 -1.000000 -2.602254
v -6.282378 1.000000 -2.602254
v -5.653988 -1.000000 -3.777884
v -5.653988 1.000000 -3.777884
v -4.808320 -1.000000 -4.808332
v -4.808320 1.000000 -4.808332
v -3.777870 -1.000000 -5.653998
v -3.777870 1.000000 -5.653998
v -2.602238 -1.000000 -6.282384
v -2.602238 1.000000 -6.282384
v -1.326604 -1.000000 -6.669342
v -1.326604 1.000000 -6.669342
vt 0.468750 0.000000
vt 0.437500 0.000000
vt 0.437500 1.000000
vt 0.468750 1.000000
vt 0.406250 0.000000
vt 0.406250 1.000000
vt 0.375000 0.000000
vt 0.375000 1.000000
vt 0.343750 0.000000
vt 0.343750 1.000000
vt 0.312500 0.000000
vt 0.312500 1.000000
vt 0.281250 0.000000
vt 0.281250 1.000000
vt 0.250000 0.000000
vt 0.250000 1.000000
vt 0.218750 0.000000
vt 0.218750 1.000000
vt 0.187500 0.000000
vt 0.187500 1.000000
vt 0.156250 0.000000
vt 0.156250 1.000000
vt 0.125000 0.000000
vt 0.125000 1.000000
vt 0.093750 0.000000
vt 0.093750 1.000000
vt 0.062500 0.000000
vt 0.062500 1.000000
vt 0.031250 0.000000
vt 0.031250 1.000000
vt 0.000000 0.000000
vt 0.000000 1.000000
vt 1.000000 0.000000
vt 0.968750 0.000000
vt 0.968750 1.000000
vt 1.000000 1.000000
vt 0.937500 0.000000
vt 0.937500 1.000000
vt 0.906250 0.000000
vt 0.906250 1.000000
vt 0.875000 0.000000
vt 0.875000 1.000000
vt 0.843750 0.000000
vt 0.843750 1.000000
vt 0.812500 0.000000
vt 0.812500 1.000000
vt 0.781250 0.000000
vt 0.781250 1.000000
vt 0.750000 0.000000
vt 0.750000 1.000000
vt 0.718750 0.000000
vt 0.718750 1.000000
vt 0.687500 0.000000
vt 0.687500 1.000000
vt 0.656250 0.000000
vt 0.656250 1.000000
vt 0.625000 0.000000
vt 0.625000 1.000000
vt 0.593750 0.000000
vt 0.593750 1.000000
vt 0.562500 0.000000
vt 0.562500 1.000000
vt 0.531250 0.000000
vt 0.531250 1.000000
vt 0.500000 0.000000
vt 0.500000 1.000000
vn -0.098000 0.000000 0.995200
vn -0.290300 0.000000 0.956900
vn -0.471400 0.000000 0.881900
vn -0.634400 0.000000 0.773000
vn -0.773000 0.000000 0.634400
vn -0.881900 0.000000 0.471400
vn -0.956900 0.000000 0.290300
vn -0.995200 0.000000 0.098000
vn -0.995200 0.000000 -0.098000
vn -0.956900 0.000000 -0.290300
vn -0.881900 0.000000 -0.471400
vn -0.773000 0.000000 -0.634400
vn -0.634400 0.000000 -0.773000
vn -0.471400 0.000000 -0.881900
vn -0.290300 0.000000 -0.956900
vn -0.098000 0.000000 -0.995200
vn 0.098000 0.000000 -0.995200
vn 0.290300 0.000000 -0.956900
vn 0.471400 0.000000 -0.881900
vn 0.634400 0.000000 -0.773000
vn 0.773000 0.000000 -0.634400
vn 0.881900 0.000000 -0.471400
vn 0.956900 0.000000 -0.290300
vn 0.995200 0.000000 -0.098000
vn 0.995200 0.000000 0.098000
vn 0.956900 0.000000 0.290300
vn 0.881900 0.000000 0.471400
vn 0.773000 0.000000 0.634400
vn 0.634400 0.000000 0.773000
vn 0.471400 0.000000 0.881900
vn 0.098000 0.000000 0.995200
vn 0.290300 0.000000 0.956900
usemtl None
s off
f 1/1/1 3/2/1 4/3/1 2/4/1
f 3/2/2 5/5/2 6/6/2 4/3/2
f 5/5/3 7/7/3 8/8/3 6/6/3
f 7/7/4 9/9/4 10/10/4 8/8/4
f 9/9/5 11/11/5 12/12/5 10/10/5
f 11/11/6 13/13/6 14/14/6 12/12/6
f 13/13/7 15/15/7 16/16/7 14/14/7
f 15/15/8 17/17/8 18/18/8 16/16/8
f 17/17/9 19/19/9 20/20/9 18/18/9
f 19/19/10 21/21/10 22/22/10 20/20/10
f 21/21/11 23/23/11 24/24/11 22/22/11
f 23/23/12 25/25/12 26/26/12 24/24/12
f 25/25/13 27/27/13 28/28/13 26/26/13
f 27/27/14 29/29/14 30/30/14 28/28/14
f 29/29/15 31/31/15 32/32/15 30/30/15
f 31/33/16 33/34/16 34/35/16 32/36/16
f 33/34/17 35/37/17 36/38/17 34/35/17
f 35/37/18 37/39/18 38/40/18 36/38/18
f 37/39/19 39/41/19 40/42/19 38/40/19
f 39/41/20 41/43/20 42/44/20 40/42/20
f 41/43/21 43/45/21 44/46/21 42/44/21
f 43/45/22 45/47/22 46/48/22 44/46/22
f 45/47/23 47/49/23 48/50/23 46/48/23
f 47/49/24 49/51/24 50/52/24 48/50/24
f 49/51/25 51/53/25 52/54/25 50/52/25
f 51/53/26 53/55/26 54/56/26 52/54/26
f 53/55/27 55/57/27 56/58/27 54/56/27
f 55/57/28 57/59/28 58/60/28 56/58/28
f 57/59/29 59/61/29 60/62/29 58/60/29
f 59/61/30 61/63/30 62/64/30 60/62/30
f 63/65/31 1/1/31 2/4/31 64/66/31
f 61/63/32 63/65/32 64/66/32 62/64/32
