# Blender v2.77 (sub 0) OBJ File: ''
# www.blender.org
o Object_1.314
v 39.024002 1.600000 -2.976000
v 36.976002 1.600000 -2.976000
v 36.976002 -0.000000 -2.976000
v 39.024002 -0.000000 -2.976000
v 36.976002 2.048000 -2.976000
v 36.976002 1.984000 -2.976000
v 39.024002 1.984000 -2.975999
v 39.024002 2.048000 -2.976000
v 36.976002 1.600000 -2.527999
v 39.024002 1.600000 -2.527999
v 37.024002 1.600000 -2.976000
v 34.976002 1.600000 -2.976000
v 34.976002 -0.000000 -2.976000
v 37.024002 -0.000000 -2.976000
v 34.976002 2.048000 -2.976000
v 34.976002 1.984000 -2.976000
v 37.024002 1.984000 -2.976000
v 37.024002 2.048000 -2.976000
v 34.976002 1.600000 -2.528000
v 37.024002 1.600000 -2.527999
v 35.024002 1.600000 -2.976000
v 32.976002 1.600000 -2.976000
v 32.976002 -0.000000 -2.976000
v 35.024002 -0.000000 -2.976000
v 32.976002 2.048000 -2.976000
v 32.976002 1.984000 -2.976000
v 35.024002 1.984000 -2.975999
v 35.024002 2.048000 -2.976000
v 32.976002 1.600000 -2.527999
v 35.024002 1.600000 -2.527999
v 33.024002 1.600000 -2.976000
v 30.976002 1.600000 -2.976000
v 30.976002 -0.000000 -2.976000
v 33.024002 -0.000000 -2.976000
v 30.976002 2.048000 -2.976000
v 30.976002 1.984000 -2.976000
v 33.024002 1.984000 -2.976000
v 33.024002 2.048000 -2.976000
v 30.976002 1.600000 -2.527999
v 33.024002 1.600000 -2.528000
v 31.024002 1.600000 -2.976000
v 28.976002 1.600000 -2.976000
v 28.976002 -0.000000 -2.976000
v 31.024002 -0.000000 -2.976000
v 28.976002 2.048000 -2.976000
v 28.976002 1.984000 -2.975999
v 31.024002 1.984000 -2.976000
v 31.024002 2.048000 -2.976000
v 28.976002 1.600000 -2.528000
v 31.024002 1.600000 -2.527999
v 29.024002 1.600000 -2.975999
v 26.976002 1.600000 -2.975999
v 26.976002 -0.000000 -2.976000
v 29.024002 -0.000000 -2.976000
v 26.976002 2.048000 -2.976000
v 26.976002 1.984000 -2.975999
v 29.024002 1.984000 -2.975999
v 29.024002 2.048000 -2.975999
v 26.976002 1.600000 -2.527999
v 29.024002 1.600000 -2.527999
v 27.024002 1.600000 -2.976000
v 24.976002 1.600000 -2.976000
v 24.976002 -0.000000 -2.976000
v 27.024002 -0.000000 -2.976000
v 24.976002 2.048000 -2.976000
v 24.976002 1.984000 -2.976000
v 27.024002 1.984000 -2.975999
v 27.024002 2.048000 -2.976000
v 24.976002 1.600000 -2.528000
v 27.024002 1.600000 -2.528000
v 25.024002 1.600000 -2.976000
v 22.976002 1.600000 -2.976000
v 22.976002 -0.000000 -2.976000
v 25.024002 -0.000000 -2.976000
v 22.976002 2.048000 -2.976000
v 22.976002 1.984000 -2.975999
v 25.024002 1.984000 -2.976000
v 25.024002 2.048000 -2.976000
v 22.976002 1.600000 -2.528000
v 25.024002 1.600000 -2.528000
v 39.055000 0.000000 -3.055000
v 36.945004 0.000000 -3.055000
v 36.945004 -0.000000 -0.945000
v 39.055000 -0.000000 -0.945000
v 37.055000 0.000000 -3.055000
v 34.945004 0.000000 -3.055000
v 34.945004 -0.000000 -0.945000
v 37.055000 -0.000000 -0.945000
v 35.055000 0.000000 -3.055000
v 32.945000 0.000000 -3.055000
v 32.945000 -0.000000 -0.945000
v 35.055000 -0.000000 -0.945000
v 33.055000 0.000000 -3.055000
v 30.945002 0.000000 -3.055000
v 30.945002 -0.000000 -0.945000
v 33.055000 -0.000000 -0.945000
v 31.055002 0.000000 -3.055000
v 28.945002 0.000000 -3.055000
v 28.945002 -0.000000 -0.945000
v 31.055002 -0.000000 -0.945000
v 29.055002 0.000000 -3.055000
v 26.945002 0.000000 -3.055000
v 26.945002 -0.000000 -0.945000
v 29.055002 -0.000000 -0.945000
v 27.055002 0.000000 -3.055000
v 24.945002 0.000000 -3.055000
v 24.945002 -0.000000 -0.945000
v 27.055002 -0.000000 -0.945000
v 25.055000 0.000000 -3.055000
v 22.945002 0.000000 -3.055000
v 22.945002 -0.000000 -0.945000
v 25.055000 -0.000000 -0.945000
v 23.024000 1.600000 -2.576000
v 23.024000 1.984000 -3.024000
v 20.976002 1.984000 -3.024000
v 21.424002 1.600000 -2.576000
v 23.024000 2.048000 -3.024000
v 20.976002 2.048000 -3.024000
v 23.024000 -0.000000 -3.024000
v 23.024000 1.600000 -3.024000
v 20.976002 1.600000 -3.024000
v 20.976002 0.000000 -3.024000
v 20.976002 2.048001 -0.976000
v 20.976002 1.984000 -0.976000
v 20.976002 1.600000 -0.976000
v 20.976002 0.000000 -0.976000
v 23.024000 -0.000000 -0.976000
v 21.424002 1.600000 -0.976000
v 39.055000 0.000000 -1.055000
v 36.945004 0.000000 -1.055000
v 36.945004 -0.000000 1.055000
v 39.055000 -0.000000 1.055000
v 37.055000 0.000000 -1.055000
v 34.945004 0.000000 -1.055000
v 34.945004 -0.000000 1.055000
v 37.055000 -0.000000 1.055000
v 35.055000 0.000000 -1.055000
v 32.945000 0.000000 -1.055000
v 32.945000 -0.000000 1.055000
v 35.055000 -0.000000 1.055000
v 33.055000 0.000000 -1.055000
v 30.945002 0.000000 -1.055000
v 30.945002 -0.000000 1.055000
v 33.055000 -0.000000 1.055000
v 31.055002 0.000000 -1.055000
v 28.945002 0.000000 -1.055000
v 28.945002 -0.000000 1.055000
v 31.055002 -0.000000 1.055000
v 29.055002 0.000000 -1.055000
v 26.945002 0.000000 -1.055000
v 26.945002 -0.000000 1.055000
v 29.055002 -0.000000 1.055000
v 27.055002 0.000000 -1.055000
v 24.945002 0.000000 -1.055000
v 24.945002 -0.000000 1.055000
v 27.055002 -0.000000 1.055000
v 25.055000 0.000000 -1.055000
v 22.945002 0.000000 -1.055000
v 22.945002 -0.000000 1.055000
v 25.055000 -0.000000 1.055000
v 23.055000 0.000000 -1.055000
v 20.945002 0.000000 -1.055000
v 20.945002 -0.000000 1.055000
v 23.055000 -0.000000 1.055000
v 21.024000 1.600000 -1.024000
v 21.024000 1.600000 1.024000
v 21.024000 -0.000000 1.024000
v 21.024000 -0.000000 -1.024000
v 21.024000 2.048000 1.024000
v 21.024000 1.984000 1.024000
v 21.024000 1.984000 -1.024000
v 21.024000 2.048000 -1.024000
v 21.472000 1.600000 1.024000
v 21.472000 1.600000 -1.024000
vt 0.8765 0.6654
vt 0.9353 0.6654
vt 0.9353 0.5863
vt 0.8765 0.5863
vt 0.8741 0.8324
vt 0.8741 0.8157
vt 0.8155 0.8157
vt 0.8155 0.8324
vt 0.4393 0.7362
vt 0.4990 0.7362
vt 0.4990 0.6774
vt 0.4393 0.6774
vt 0.5579 0.7479
vt 0.5579 0.6777
vt 0.5040 0.6777
vt 0.5040 0.7479
vt 0.8765 0.6654
vt 0.9353 0.6654
vt 0.9353 0.5863
vt 0.8765 0.5863
vt 0.8741 0.8324
vt 0.8741 0.8157
vt 0.8155 0.8157
vt 0.8155 0.8324
vt 0.4393 0.7362
vt 0.4990 0.7362
vt 0.4990 0.6774
vt 0.4393 0.6774
vt 0.5579 0.7479
vt 0.5579 0.6777
vt 0.5040 0.6777
vt 0.5040 0.7479
vt 0.8765 0.6654
vt 0.9353 0.6654
vt 0.9353 0.5863
vt 0.8765 0.5863
vt 0.8741 0.8324
vt 0.8741 0.8157
vt 0.8155 0.8157
vt 0.8155 0.8324
vt 0.4393 0.7362
vt 0.4990 0.7362
vt 0.4990 0.6774
vt 0.4393 0.6774
vt 0.5579 0.7479
vt 0.5579 0.6777
vt 0.5040 0.6777
vt 0.5040 0.7479
vt 0.8765 0.6654
vt 0.9353 0.6654
vt 0.9353 0.5863
vt 0.8765 0.5863
vt 0.8741 0.8324
vt 0.8741 0.8157
vt 0.8155 0.8157
vt 0.8155 0.8324
vt 0.4393 0.7362
vt 0.4990 0.7362
vt 0.4990 0.6774
vt 0.4393 0.6774
vt 0.5579 0.7479
vt 0.5579 0.6777
vt 0.5040 0.6777
vt 0.5040 0.7479
vt 0.8765 0.6654
vt 0.9353 0.6654
vt 0.9353 0.5863
vt 0.8765 0.5863
vt 0.8741 0.8324
vt 0.8741 0.8157
vt 0.8155 0.8157
vt 0.8155 0.8324
vt 0.4393 0.7362
vt 0.4990 0.7362
vt 0.4990 0.6774
vt 0.4393 0.6774
vt 0.5579 0.7479
vt 0.5579 0.6777
vt 0.5040 0.6777
vt 0.5040 0.7479
vt 0.8765 0.6654
vt 0.9353 0.6654
vt 0.9353 0.5863
vt 0.8765 0.5863
vt 0.8741 0.8324
vt 0.8741 0.8157
vt 0.8155 0.8157
vt 0.8155 0.8324
vt 0.4393 0.7362
vt 0.4990 0.7362
vt 0.4990 0.6774
vt 0.4393 0.6774
vt 0.5579 0.7479
vt 0.5579 0.6777
vt 0.5040 0.6777
vt 0.5040 0.7479
vt 0.8765 0.6654
vt 0.9353 0.6654
vt 0.9353 0.5863
vt 0.8765 0.5863
vt 0.8741 0.8324
vt 0.8741 0.8157
vt 0.8155 0.8157
vt 0.8155 0.8324
vt 0.4393 0.7362
vt 0.4990 0.7362
vt 0.4990 0.6774
vt 0.4393 0.6774
vt 0.5579 0.7479
vt 0.5579 0.6777
vt 0.5040 0.6777
vt 0.5040 0.7479
vt 0.8765 0.6654
vt 0.9353 0.6654
vt 0.9353 0.5863
vt 0.8765 0.5863
vt 0.8741 0.8324
vt 0.8741 0.8157
vt 0.8155 0.8157
vt 0.8155 0.8324
vt 0.4393 0.7362
vt 0.4990 0.7362
vt 0.4990 0.6774
vt 0.4393 0.6774
vt 0.5579 0.7479
vt 0.5579 0.6777
vt 0.5040 0.6777
vt 0.5040 0.7479
vt 0.8765 0.6654
vt 0.9353 0.6654
vt 0.9353 0.5863
vt 0.8765 0.5863
vt 0.8741 0.8324
vt 0.8741 0.8157
vt 0.8155 0.8157
vt 0.8155 0.8324
vt 0.4393 0.7362
vt 0.4990 0.7362
vt 0.4990 0.6774
vt 0.4393 0.6774
vt 0.5579 0.7479
vt 0.5579 0.6777
vt 0.5040 0.6777
vt 0.5040 0.7479
vt 0.0619 0.6643
vt 0.0619 0.5870
vt 0.0006 0.5870
vt 0.0006 0.6643
vt 0.0619 0.6643
vt 0.0619 0.5870
vt 0.0006 0.5870
vt 0.0006 0.6643
vt 0.0619 0.6643
vt 0.0619 0.5870
vt 0.0006 0.5870
vt 0.0006 0.6643
vt 0.0619 0.6643
vt 0.0619 0.5870
vt 0.0006 0.5870
vt 0.0006 0.6643
vt 0.0619 0.6643
vt 0.0619 0.5870
vt 0.0006 0.5870
vt 0.0006 0.6643
vt 0.0619 0.6643
vt 0.0619 0.5870
vt 0.0006 0.5870
vt 0.0006 0.6643
vt 0.0619 0.6643
vt 0.0619 0.5870
vt 0.0006 0.5870
vt 0.0006 0.6643
vt 0.0619 0.6643
vt 0.0619 0.5870
vt 0.0006 0.5870
vt 0.0006 0.6643
vt 0.4971 0.7488
vt 0.4971 0.6699
vt 0.4393 0.6699
vt 0.4512 0.7488
vt 0.8137 0.8151
vt 0.8137 0.8324
vt 0.8749 0.8324
vt 0.8749 0.8151
vt 0.8759 0.5843
vt 0.8759 0.6664
vt 0.9347 0.6664
vt 0.9347 0.5843
vt 0.8749 0.8324
vt 0.8749 0.8151
vt 0.8137 0.8151
vt 0.8137 0.8324
vt 0.8759 0.6664
vt 0.9347 0.6664
vt 0.9347 0.5843
vt 0.8759 0.5843
vt 0.0612 0.5859
vt 0.0008 0.5859
vt 0.0008 0.6654
vt 0.0612 0.6654
vt 0.0575 0.2714
vt 0.0190 0.2714
vt 0.0090 0.3191
vt 0.0575 0.3191
vt 0.0090 0.2714
vt 0.0090 0.3191
vt 0.0575 0.3191
vt 0.0467 0.2714
vt 0.4971 0.6699
vt 0.4393 0.6699
vt 0.4393 0.7488
vt 0.4842 0.7488
vt 0.0619 0.6643
vt 0.0619 0.5870
vt 0.0006 0.5870
vt 0.0006 0.6643
vt 0.0619 0.6643
vt 0.0619 0.5870
vt 0.0006 0.5870
vt 0.0006 0.6643
vt 0.0619 0.6643
vt 0.0619 0.5870
vt 0.0006 0.5870
vt 0.0006 0.6643
vt 0.0619 0.6643
vt 0.0619 0.5870
vt 0.0006 0.5870
vt 0.0006 0.6643
vt 0.0619 0.6643
vt 0.0619 0.5870
vt 0.0006 0.5870
vt 0.0006 0.6643
vt 0.0619 0.6643
vt 0.0619 0.5870
vt 0.0006 0.5870
vt 0.0006 0.6643
vt 0.0619 0.6643
vt 0.0619 0.5870
vt 0.0006 0.5870
vt 0.0006 0.6643
vt 0.0619 0.6643
vt 0.0619 0.5870
vt 0.0006 0.5870
vt 0.0006 0.6643
vt 0.0619 0.6643
vt 0.0619 0.5870
vt 0.0006 0.5870
vt 0.0006 0.6643
vn 0.7071 -0.7071 0.0000
vn 1.0000 0.0000 0.0000
vn 0.9085 0.4179 -0.0000
vn 0.9379 -0.3469 0.0000
vn 0.0000 -0.7071 0.7071
vn 0.0000 -0.0000 1.0000
vn -0.0000 0.4179 0.9085
vn 0.0000 -0.3469 0.9379
vn -0.0000 1.0000 0.0000
vn 0.6434 0.4148 0.6434
vn 0.5912 -0.5487 0.5912
vn 0.7071 -0.0000 0.7071
vn 0.0000 0.7071 0.7071
vn 0.5774 -0.5774 0.5774
vn 0.5774 0.5773 0.5774
vn 0.9085 0.4178 -0.0000
vn 0.7071 0.7071 -0.0000
s 1
f 165/1/1 166/2/1 167/3/2 168/4/2
f 169/5/2 170/6/3 171/7/3 172/8/2
f 173/9/4 174/10/4 171/11/3 170/12/3
f 165/13/1 174/14/4 173/15/4 166/16/1
f 1/17/5 2/18/5 3/19/6 4/20/6
f 5/21/6 6/22/7 7/23/7 8/24/6
f 9/25/8 10/26/8 7/27/7 6/28/7
f 1/29/5 10/30/8 9/31/8 2/32/5
f 11/33/5 12/34/5 13/35/6 14/36/6
f 15/37/6 16/38/7 17/39/7 18/40/6
f 19/41/8 20/42/8 17/43/7 16/44/7
f 11/45/5 20/46/8 19/47/8 12/48/5
f 21/49/5 22/50/5 23/51/6 24/52/6
f 25/53/6 26/54/7 27/55/7 28/56/6
f 29/57/8 30/58/8 27/59/7 26/60/7
f 21/61/5 30/62/8 29/63/8 22/64/5
f 31/65/5 32/66/5 33/67/6 34/68/6
f 35/69/6 36/70/7 37/71/7 38/72/6
f 39/73/8 40/74/8 37/75/7 36/76/7
f 31/77/5 40/78/8 39/79/8 32/80/5
f 41/81/5 42/82/5 43/83/6 44/84/6
f 45/85/6 46/86/7 47/87/7 48/88/6
f 49/89/8 50/90/8 47/91/7 46/92/7
f 41/93/5 50/94/8 49/95/8 42/96/5
f 51/97/5 52/98/5 53/99/6 54/100/6
f 55/101/6 56/102/7 57/103/7 58/104/6
f 59/105/8 60/106/8 57/107/7 56/108/7
f 51/109/5 60/110/8 59/111/8 52/112/5
f 61/113/5 62/114/5 63/115/6 64/116/6
f 65/117/6 66/118/7 67/119/7 68/120/6
f 69/121/8 70/122/8 67/123/7 66/124/7
f 61/125/5 70/126/8 69/127/8 62/128/5
f 71/129/5 72/130/5 73/131/6 74/132/6
f 75/133/6 76/134/7 77/135/7 78/136/6
f 79/137/8 80/138/8 77/139/7 76/140/7
f 71/141/5 80/142/8 79/143/8 72/144/5
f 81/145/9 82/146/9 83/147/9 84/148/9
f 85/149/9 86/150/9 87/151/9 88/152/9
f 89/153/9 90/154/9 91/155/9 92/156/9
f 93/157/9 94/158/9 95/159/9 96/160/9
f 97/161/9 98/162/9 99/163/9 100/164/9
f 101/165/9 102/166/9 103/167/9 104/168/9
f 105/169/9 106/170/9 107/171/9 108/172/9
f 109/173/9 110/174/9 111/175/9 112/176/9
f 113/177/8 114/178/7 115/179/10 116/180/11
f 114/181/7 117/182/6 118/183/12 115/184/10
f 119/185/13 120/186/5 121/187/14 122/188/15
f 123/189/2 124/190/16 115/191/10 118/192/12
f 121/193/14 125/194/1 126/195/17 122/196/15
f 126/197/17 127/198/9 119/199/13 122/200/15
f 113/201/8 116/202/11 121/203/14 120/204/5
f 128/205/4 125/206/1 121/207/14 116/208/11
f 115/209/10 124/210/16 128/211/4 116/212/11
f 129/213/9 130/214/9 131/215/9 132/216/9
f 133/217/9 134/218/9 135/219/9 136/220/9
f 137/221/9 138/222/9 139/223/9 140/224/9
f 141/225/9 142/226/9 143/227/9 144/228/9
f 145/229/9 146/230/9 147/231/9 148/232/9
f 149/233/9 150/234/9 151/235/9 152/236/9
f 153/237/9 154/238/9 155/239/9 156/240/9
f 157/241/9 158/242/9 159/243/9 160/244/9
f 161/245/9 162/246/9 163/247/9 164/248/9
