# Blender v2.77 (sub 0) OBJ File: ''
# www.blender.org
o Object_0.4981
v 39.023998 1.600000 -2.976000
v 36.975998 1.600000 -2.976000
v 36.975998 -0.000000 -2.976000
v 39.023998 -0.000000 -2.976000
v 36.975998 2.048000 -2.976000
v 36.975998 1.984000 -2.976000
v 39.023998 1.984000 -2.976000
v 39.023998 2.048000 -2.976000
v 36.975998 1.600000 -2.528000
v 39.023998 1.600000 -2.528000
v 37.023998 1.600000 -2.976000
v 34.975998 1.600000 -2.976000
v 34.975998 -0.000000 -2.976000
v 37.023998 -0.000000 -2.976000
v 34.975998 2.048000 -2.976000
v 34.975998 1.984000 -2.976000
v 37.023998 1.984000 -2.976000
v 37.023998 2.048000 -2.976000
v 34.975998 1.600000 -2.528000
v 37.023998 1.600000 -2.528000
v 35.023998 1.600000 -2.976000
v 32.975998 1.600000 -2.976000
v 32.975998 -0.000000 -2.976000
v 35.023998 -0.000000 -2.976000
v 32.975998 2.048000 -2.976000
v 32.975998 1.984000 -2.976000
v 35.023998 1.984000 -2.976000
v 35.023998 2.048000 -2.976000
v 32.975998 1.600000 -2.528000
v 35.023998 1.600000 -2.528000
v 33.024002 1.600000 -2.976000
v 30.976000 1.600000 -2.976000
v 30.976000 -0.000000 -2.976000
v 33.024002 -0.000000 -2.976000
v 30.976000 2.048000 -2.976000
v 30.976000 1.984000 -2.976000
v 33.024002 1.984000 -2.976000
v 33.024002 2.048000 -2.976000
v 30.976000 1.600000 -2.528000
v 33.024002 1.600000 -2.528000
v 31.024000 1.600000 -2.976000
v 28.976000 1.600000 -2.976000
v 28.976000 -0.000000 -2.976000
v 31.024000 -0.000000 -2.976000
v 28.976000 2.048000 -2.976000
v 28.976000 1.984000 -2.976000
v 31.024000 1.984000 -2.976000
v 31.024000 2.048000 -2.976000
v 28.976000 1.600000 -2.528000
v 31.024000 1.600000 -2.528000
v 29.024000 1.600000 -2.976000
v 26.976000 1.600000 -2.976000
v 26.976000 -0.000000 -2.976000
v 29.024000 -0.000000 -2.976000
v 26.976000 2.048000 -2.976000
v 26.976000 1.984000 -2.976000
v 29.024000 1.984000 -2.976000
v 29.024000 2.048000 -2.976000
v 26.976000 1.600000 -2.528000
v 29.024000 1.600000 -2.528000
v 27.024000 1.600000 -2.976000
v 24.976000 1.600000 -2.976000
v 24.976000 -0.000000 -2.976000
v 27.024000 -0.000000 -2.976000
v 24.976000 2.048000 -2.976000
v 24.976000 1.984000 -2.976000
v 27.024000 1.984000 -2.976000
v 27.024000 2.048000 -2.976000
v 24.976000 1.600000 -2.528000
v 27.024000 1.600000 -2.528000
v 25.024000 1.600000 -2.976000
v 22.976000 1.600000 -2.976000
v 22.976000 -0.000000 -2.976000
v 25.024000 -0.000000 -2.976000
v 22.976000 2.048000 -2.976000
v 22.976000 1.984000 -2.976000
v 25.024000 1.984000 -2.976000
v 25.024000 2.048000 -2.976000
v 22.976000 1.600000 -2.528000
v 25.024000 1.600000 -2.528000
v 23.023998 1.600000 -2.976000
v 20.976000 1.600000 -2.976000
v 20.976000 -0.000000 -2.976000
v 23.023998 -0.000000 -2.976000
v 20.976000 2.048000 -2.976000
v 20.976000 1.984000 -2.976000
v 23.023998 1.984000 -2.976000
v 23.023998 2.048000 -2.976000
v 20.976000 1.600000 -2.528000
v 23.023998 1.600000 -2.528000
v 21.023998 1.600000 -2.976000
v 18.976000 1.600000 -2.976000
v 18.976000 -0.000000 -2.976000
v 21.023998 -0.000000 -2.976000
v 18.976000 2.048000 -2.976000
v 18.976000 1.984000 -2.976000
v 21.023998 1.984000 -2.976000
v 21.023998 2.048000 -2.976000
v 18.976000 1.600000 -2.528000
v 21.023998 1.600000 -2.528000
v 19.023998 1.600000 -2.976000
v 16.975998 1.600000 -2.976000
v 16.975998 -0.000000 -2.976000
v 19.023998 -0.000000 -2.976000
v 16.975998 2.048000 -2.976000
v 16.975998 1.984000 -2.976000
v 19.023998 1.984000 -2.976000
v 19.023998 2.048000 -2.976000
v 16.975998 1.600000 -2.528000
v 19.023998 1.600000 -2.528000
v 17.024000 1.600000 -2.976000
v 14.976000 1.600000 -2.976000
v 14.976000 -0.000000 -2.976000
v 17.024000 -0.000000 -2.976000
v 14.976000 2.048000 -2.976000
v 14.976000 1.984000 -2.976000
v 17.024000 1.984000 -2.976000
v 17.024000 2.048000 -2.976000
v 14.976000 1.600000 -2.528000
v 17.024000 1.600000 -2.528000
v 15.024000 1.600000 -2.976000
v 12.976000 1.600000 -2.976000
v 12.976000 -0.000000 -2.976000
v 15.024000 -0.000000 -2.976000
v 12.976000 2.048000 -2.976000
v 12.976000 1.984000 -2.976000
v 15.024000 1.984000 -2.976000
v 15.024000 2.048000 -2.976000
v 12.976000 1.600000 -2.528000
v 15.024000 1.600000 -2.528000
v 13.023999 1.600000 -2.976000
v 10.976000 1.600000 -2.976000
v 10.976000 -0.000000 -2.976000
v 13.023999 -0.000000 -2.976000
v 10.976000 2.048000 -2.976000
v 10.976000 1.984000 -2.976000
v 13.023999 1.984000 -2.976000
v 13.023999 2.048000 -2.976000
v 10.976000 1.600000 -2.528000
v 13.023999 1.600000 -2.528000
v 11.023999 1.600000 -2.976000
v 8.976000 1.600000 -2.976000
v 8.976000 -0.000000 -2.976000
v 11.023999 -0.000000 -2.976000
v 8.976000 2.048000 -2.976000
v 8.976000 1.984000 -2.976000
v 11.023999 1.984000 -2.976000
v 11.023999 2.048000 -2.976000
v 8.976000 1.600000 -2.528000
v 11.023999 1.600000 -2.528000
v 9.024000 1.600000 -2.976000
v 6.976000 1.600000 -2.976000
v 6.976000 -0.000000 -2.976000
v 9.024000 -0.000000 -2.976000
v 6.976000 2.048000 -2.976000
v 6.976000 1.984000 -2.976000
v 9.024000 1.984000 -2.976000
v 9.024000 2.048000 -2.976000
v 6.976000 1.600000 -2.528000
v 9.024000 1.600000 -2.528000
v 7.024000 1.600000 -2.976000
v 4.976000 1.600000 -2.976000
v 4.976000 -0.000000 -2.976000
v 7.024000 -0.000000 -2.976000
v 4.976000 2.048000 -2.976000
v 4.976000 1.984000 -2.976000
v 7.024000 1.984000 -2.976000
v 7.024000 2.048000 -2.976000
v 4.976000 1.600000 -2.528000
v 7.024000 1.600000 -2.528000
v 5.024000 1.600000 -2.976000
v 2.976000 1.600000 -2.976000
v 2.976000 -0.000000 -2.976000
v 5.024000 -0.000000 -2.976000
v 2.976000 2.048000 -2.976000
v 2.976000 1.984000 -2.976000
v 5.024000 1.984000 -2.976000
v 5.024000 2.048000 -2.976000
v 2.976000 1.600000 -2.528000
v 5.024000 1.600000 -2.528000
v 3.024000 1.600000 -2.976000
v 0.976000 1.600000 -2.976000
v 0.976000 -0.000000 -2.976000
v 3.024000 -0.000000 -2.976000
v 0.976000 2.048000 -2.976000
v 0.976000 1.984000 -2.976000
v 3.024000 1.984000 -2.976000
v 3.024000 2.048000 -2.976000
v 0.976000 1.600000 -2.528000
v 3.024000 1.600000 -2.528000
v 1.024000 1.600000 -2.976000
v -1.024000 1.600000 -2.976000
v -1.024000 -0.000000 -2.976000
v 1.024000 -0.000000 -2.976000
v -1.024000 2.048000 -2.976000
v -1.024000 1.984000 -2.976000
v 1.024000 1.984000 -2.976000
v 1.024000 2.048000 -2.976000
v -1.024000 1.600000 -2.528000
v 1.024000 1.600000 -2.528000
v 39.054996 0.000000 -3.055000
v 36.945000 0.000000 -3.055000
v 36.945000 -0.000000 -0.945000
v 39.054996 -0.000000 -0.945000
v 37.054996 0.000000 -3.055000
v 34.944996 0.000000 -3.055000
v 34.944996 -0.000000 -0.945000
v 37.054996 -0.000000 -0.945000
v 35.054996 0.000000 -3.055000
v 32.944996 0.000000 -3.055000
v 32.944996 -0.000000 -0.945000
v 35.054996 -0.000000 -0.945000
v 33.055000 0.000000 -3.055000
v 30.945000 0.000000 -3.055000
v 30.945000 -0.000000 -0.945000
v 33.055000 -0.000000 -0.945000
v 31.055000 0.000000 -3.055000
v 28.945000 0.000000 -3.055000
v 28.945000 -0.000000 -0.945000
v 31.055000 -0.000000 -0.945000
v 29.055000 0.000000 -3.055000
v 26.945000 0.000000 -3.055000
v 26.945000 -0.000000 -0.945000
v 29.055000 -0.000000 -0.945000
v 27.054998 0.000000 -3.055000
v 24.945000 0.000000 -3.055000
v 24.945000 -0.000000 -0.945000
v 27.054998 -0.000000 -0.945000
v 25.054998 0.000000 -3.055000
v 22.945000 0.000000 -3.055000
v 22.945000 -0.000000 -0.945000
v 25.054998 -0.000000 -0.945000
v 23.054998 0.000000 -3.055000
v 20.945000 0.000000 -3.055000
v 20.945000 -0.000000 -0.945000
v 23.054998 -0.000000 -0.945000
v 21.054998 0.000000 -3.055000
v 18.945000 0.000000 -3.055000
v 18.945000 -0.000000 -0.945000
v 21.054998 -0.000000 -0.945000
v 19.054998 0.000000 -3.055000
v 16.945000 0.000000 -3.055000
v 16.945000 -0.000000 -0.945000
v 19.054998 -0.000000 -0.945000
v 17.055000 0.000000 -3.055000
v 14.945000 0.000000 -3.055000
v 14.945000 -0.000000 -0.945000
v 17.055000 -0.000000 -0.945000
v 15.054999 0.000000 -3.055000
v 12.945000 0.000000 -3.055000
v 12.945000 -0.000000 -0.945000
v 15.054999 -0.000000 -0.945000
v 13.054999 0.000000 -3.055000
v 10.945000 0.000000 -3.055000
v 10.945000 -0.000000 -0.945000
v 13.054999 -0.000000 -0.945000
v 11.054999 0.000000 -3.055000
v 8.945000 0.000000 -3.055000
v 8.945000 -0.000000 -0.945000
v 11.054999 -0.000000 -0.945000
v 9.055000 0.000000 -3.055000
v 6.945000 0.000000 -3.055000
v 6.945000 -0.000000 -0.945000
v 9.055000 -0.000000 -0.945000
v 7.055000 0.000000 -3.055000
v 4.945000 0.000000 -3.055000
v 4.945000 -0.000000 -0.945000
v 7.055000 -0.000000 -0.945000
v 5.055000 0.000000 -3.055000
v 2.945000 0.000000 -3.055000
v 2.945000 -0.000000 -0.945000
v 5.055000 -0.000000 -0.945000
v 3.055000 0.000000 -3.055000
v 0.945000 0.000000 -3.055000
v 0.945000 -0.000000 -0.945000
v 3.055000 -0.000000 -0.945000
v 1.055000 0.000000 -3.055000
v -1.055000 0.000000 -3.055000
v -1.055000 -0.000000 -0.945000
v 1.055000 -0.000000 -0.945000
v 39.054996 0.000000 -1.055000
v 36.945000 0.000000 -1.055000
v 36.945000 -0.000000 1.055000
v 39.054996 -0.000000 1.055000
v 37.054996 0.000000 -1.055000
v 34.944996 0.000000 -1.055000
v 34.944996 -0.000000 1.055000
v 37.054996 -0.000000 1.055000
v 35.054996 0.000000 -1.055000
v 32.944996 0.000000 -1.055000
v 32.944996 -0.000000 1.055000
v 35.054996 -0.000000 1.055000
v 33.055000 0.000000 -1.055000
v 30.945000 0.000000 -1.055000
v 30.945000 -0.000000 1.055000
v 33.055000 -0.000000 1.055000
v 31.055000 0.000000 -1.055000
v 28.945000 0.000000 -1.055000
v 28.945000 -0.000000 1.055000
v 31.055000 -0.000000 1.055000
v 29.055000 0.000000 -1.055000
v 26.945000 0.000000 -1.055000
v 26.945000 -0.000000 1.055000
v 29.055000 -0.000000 1.055000
v 27.054998 0.000000 -1.055000
v 24.945000 0.000000 -1.055000
v 24.945000 -0.000000 1.055000
v 27.054998 -0.000000 1.055000
v 25.054998 0.000000 -1.055000
v 22.945000 0.000000 -1.055000
v 22.945000 -0.000000 1.055000
v 25.054998 -0.000000 1.055000
v 23.054998 0.000000 -1.055000
v 20.945000 0.000000 -1.055000
v 20.945000 -0.000000 1.055000
v 23.054998 -0.000000 1.055000
v 21.054998 0.000000 -1.055000
v 18.945000 0.000000 -1.055000
v 18.945000 -0.000000 1.055000
v 21.054998 -0.000000 1.055000
v 19.054998 0.000000 -1.055000
v 16.945000 0.000000 -1.055000
v 16.945000 -0.000000 1.055000
v 19.054998 -0.000000 1.055000
v 17.055000 0.000000 -1.055000
v 14.945000 0.000000 -1.055000
v 14.945000 -0.000000 1.055000
v 17.055000 -0.000000 1.055000
v 15.054999 0.000000 -1.055000
v 12.945000 0.000000 -1.055000
v 12.945000 -0.000000 1.055000
v 15.054999 -0.000000 1.055000
v 13.054999 0.000000 -1.055000
v 10.945000 0.000000 -1.055000
v 10.945000 -0.000000 1.055000
v 13.054999 -0.000000 1.055000
v 11.054999 0.000000 -1.055000
v 8.945000 0.000000 -1.055000
v 8.945000 -0.000000 1.055000
v 11.054999 -0.000000 1.055000
v 9.055000 0.000000 -1.055000
v 6.945000 0.000000 -1.055000
v 6.945000 -0.000000 1.055000
v 9.055000 -0.000000 1.055000
v 7.055000 0.000000 -1.055000
v 4.945000 0.000000 -1.055000
v 4.945000 -0.000000 1.055000
v 7.055000 -0.000000 1.055000
v 5.055000 0.000000 -1.055000
v 2.945000 0.000000 -1.055000
v 2.945000 -0.000000 1.055000
v 5.055000 -0.000000 1.055000
v 3.055000 0.000000 -1.055000
v 0.945000 0.000000 -1.055000
v 0.945000 -0.000000 1.055000
v 3.055000 -0.000000 1.055000
v 1.055000 0.000000 -1.055000
v -1.055000 0.000000 -1.055000
v -1.055000 -0.000000 1.055000
v 1.055000 -0.000000 1.055000
vt 0.0619 0.6643
vt 0.0619 0.5870
vt 0.0006 0.5870
vt 0.0006 0.6643
vt 0.8765 0.6654
vt 0.9353 0.6654
vt 0.9353 0.5863
vt 0.8765 0.5863
vt 0.8741 0.8324
vt 0.8741 0.8157
vt 0.8155 0.8157
vt 0.8155 0.8324
vt 0.4393 0.7362
vt 0.4990 0.7362
vt 0.4990 0.6774
vt 0.4393 0.6774
vt 0.5579 0.7479
vt 0.5579 0.6777
vt 0.5040 0.6777
vt 0.5040 0.7479
vt 0.8765 0.6654
vt 0.9353 0.6654
vt 0.9353 0.5863
vt 0.8765 0.5863
vt 0.8741 0.8324
vt 0.8741 0.8157
vt 0.8155 0.8157
vt 0.8155 0.8324
vt 0.4393 0.7362
vt 0.4990 0.7362
vt 0.4990 0.6774
vt 0.4393 0.6774
vt 0.5579 0.7479
vt 0.5579 0.6777
vt 0.5040 0.6777
vt 0.5040 0.7479
vt 0.8765 0.6654
vt 0.9353 0.6654
vt 0.9353 0.5863
vt 0.8765 0.5863
vt 0.8741 0.8324
vt 0.8741 0.8157
vt 0.8155 0.8157
vt 0.8155 0.8324
vt 0.4393 0.7362
vt 0.4990 0.7362
vt 0.4990 0.6774
vt 0.4393 0.6774
vt 0.5579 0.7479
vt 0.5579 0.6777
vt 0.5040 0.6777
vt 0.5040 0.7479
vt 0.8765 0.6654
vt 0.9353 0.6654
vt 0.9353 0.5863
vt 0.8765 0.5863
vt 0.8741 0.8324
vt 0.8741 0.8157
vt 0.8155 0.8157
vt 0.8155 0.8324
vt 0.4393 0.7362
vt 0.4990 0.7362
vt 0.4990 0.6774
vt 0.4393 0.6774
vt 0.5579 0.7479
vt 0.5579 0.6777
vt 0.5040 0.6777
vt 0.5040 0.7479
vt 0.8765 0.6654
vt 0.9353 0.6654
vt 0.9353 0.5863
vt 0.8765 0.5863
vt 0.8741 0.8324
vt 0.8741 0.8157
vt 0.8155 0.8157
vt 0.8155 0.8324
vt 0.4393 0.7362
vt 0.4990 0.7362
vt 0.4990 0.6774
vt 0.4393 0.6774
vt 0.5579 0.7479
vt 0.5579 0.6777
vt 0.5040 0.6777
vt 0.5040 0.7479
vt 0.8765 0.6654
vt 0.9353 0.6654
vt 0.9353 0.5863
vt 0.8765 0.5863
vt 0.8741 0.8324
vt 0.8741 0.8157
vt 0.8155 0.8157
vt 0.8155 0.8324
vt 0.4393 0.7362
vt 0.4990 0.7362
vt 0.4990 0.6774
vt 0.4393 0.6774
vt 0.5579 0.7479
vt 0.5579 0.6777
vt 0.5040 0.6777
vt 0.5040 0.7479
vt 0.8765 0.6654
vt 0.9353 0.6654
vt 0.9353 0.5863
vt 0.8765 0.5863
vt 0.8741 0.8324
vt 0.8741 0.8157
vt 0.8155 0.8157
vt 0.8155 0.8324
vt 0.4393 0.7362
vt 0.4990 0.7362
vt 0.4990 0.6774
vt 0.4393 0.6774
vt 0.5579 0.7479
vt 0.5579 0.6777
vt 0.5040 0.6777
vt 0.5040 0.7479
vt 0.8765 0.6654
vt 0.9353 0.6654
vt 0.9353 0.5863
vt 0.8765 0.5863
vt 0.8741 0.8324
vt 0.8741 0.8157
vt 0.8155 0.8157
vt 0.8155 0.8324
vt 0.4393 0.7362
vt 0.4990 0.7362
vt 0.4990 0.6774
vt 0.4393 0.6774
vt 0.5579 0.7479
vt 0.5579 0.6777
vt 0.5040 0.6777
vt 0.5040 0.7479
vt 0.8765 0.6654
vt 0.9353 0.6654
vt 0.9353 0.5863
vt 0.8765 0.5863
vt 0.8741 0.8324
vt 0.8741 0.8157
vt 0.8155 0.8157
vt 0.8155 0.8324
vt 0.4393 0.7362
vt 0.4990 0.7362
vt 0.4990 0.6774
vt 0.4393 0.6774
vt 0.5579 0.7479
vt 0.5579 0.6777
vt 0.5040 0.6777
vt 0.5040 0.7479
vt 0.8765 0.6654
vt 0.9353 0.6654
vt 0.9353 0.5863
vt 0.8765 0.5863
vt 0.8741 0.8324
vt 0.8741 0.8157
vt 0.8155 0.8157
vt 0.8155 0.8324
vt 0.4393 0.7362
vt 0.4990 0.7362
vt 0.4990 0.6774
vt 0.4393 0.6774
vt 0.5579 0.7479
vt 0.5579 0.6777
vt 0.5040 0.6777
vt 0.5040 0.7479
vt 0.8765 0.6654
vt 0.9353 0.6654
vt 0.9353 0.5863
vt 0.8765 0.5863
vt 0.8741 0.8324
vt 0.8741 0.8157
vt 0.8155 0.8157
vt 0.8155 0.8324
vt 0.4393 0.7362
vt 0.4990 0.7362
vt 0.4990 0.6774
vt 0.4393 0.6774
vt 0.5579 0.7479
vt 0.5579 0.6777
vt 0.5040 0.6777
vt 0.5040 0.7479
vt 0.8765 0.6654
vt 0.9353 0.6654
vt 0.9353 0.5863
vt 0.8765 0.5863
vt 0.8741 0.8324
vt 0.8741 0.8157
vt 0.8155 0.8157
vt 0.8155 0.8324
vt 0.4393 0.7362
vt 0.4990 0.7362
vt 0.4990 0.6774
vt 0.4393 0.6774
vt 0.5579 0.7479
vt 0.5579 0.6777
vt 0.5040 0.6777
vt 0.5040 0.7479
vt 0.8765 0.6654
vt 0.9353 0.6654
vt 0.9353 0.5863
vt 0.8765 0.5863
vt 0.8741 0.8324
vt 0.8741 0.8157
vt 0.8155 0.8157
vt 0.8155 0.8324
vt 0.4393 0.7362
vt 0.4990 0.7362
vt 0.4990 0.6774
vt 0.4393 0.6774
vt 0.5579 0.7479
vt 0.5579 0.6777
vt 0.5040 0.6777
vt 0.5040 0.7479
vt 0.8765 0.6654
vt 0.9353 0.6654
vt 0.9353 0.5863
vt 0.8765 0.5863
vt 0.8741 0.8324
vt 0.8741 0.8157
vt 0.8155 0.8157
vt 0.8155 0.8324
vt 0.4393 0.7362
vt 0.4990 0.7362
vt 0.4990 0.6774
vt 0.4393 0.6774
vt 0.5579 0.7479
vt 0.5579 0.6777
vt 0.5040 0.6777
vt 0.5040 0.7479
vt 0.8765 0.6654
vt 0.9353 0.6654
vt 0.9353 0.5863
vt 0.8765 0.5863
vt 0.8741 0.8324
vt 0.8741 0.8157
vt 0.8155 0.8157
vt 0.8155 0.8324
vt 0.4393 0.7362
vt 0.4990 0.7362
vt 0.4990 0.6774
vt 0.4393 0.6774
vt 0.5579 0.7479
vt 0.5579 0.6777
vt 0.5040 0.6777
vt 0.5040 0.7479
vt 0.8765 0.6654
vt 0.9353 0.6654
vt 0.9353 0.5863
vt 0.8765 0.5863
vt 0.8741 0.8324
vt 0.8741 0.8157
vt 0.8155 0.8157
vt 0.8155 0.8324
vt 0.4393 0.7362
vt 0.4990 0.7362
vt 0.4990 0.6774
vt 0.4393 0.6774
vt 0.5579 0.7479
vt 0.5579 0.6777
vt 0.5040 0.6777
vt 0.5040 0.7479
vt 0.8765 0.6654
vt 0.9353 0.6654
vt 0.9353 0.5863
vt 0.8765 0.5863
vt 0.8741 0.8324
vt 0.8741 0.8157
vt 0.8155 0.8157
vt 0.8155 0.8324
vt 0.4393 0.7362
vt 0.4990 0.7362
vt 0.4990 0.6774
vt 0.4393 0.6774
vt 0.5579 0.7479
vt 0.5579 0.6777
vt 0.5040 0.6777
vt 0.5040 0.7479
vt 0.8765 0.6654
vt 0.9353 0.6654
vt 0.9353 0.5863
vt 0.8765 0.5863
vt 0.8741 0.8324
vt 0.8741 0.8157
vt 0.8155 0.8157
vt 0.8155 0.8324
vt 0.4393 0.7362
vt 0.4990 0.7362
vt 0.4990 0.6774
vt 0.4393 0.6774
vt 0.5579 0.7479
vt 0.5579 0.6777
vt 0.5040 0.6777
vt 0.5040 0.7479
vt 0.8765 0.6654
vt 0.9353 0.6654
vt 0.9353 0.5863
vt 0.8765 0.5863
vt 0.8741 0.8324
vt 0.8741 0.8157
vt 0.8155 0.8157
vt 0.8155 0.8324
vt 0.4393 0.7362
vt 0.4990 0.7362
vt 0.4990 0.6774
vt 0.4393 0.6774
vt 0.5579 0.7479
vt 0.5579 0.6777
vt 0.5040 0.6777
vt 0.5040 0.7479
vt 0.8765 0.6654
vt 0.9353 0.6654
vt 0.9353 0.5863
vt 0.8765 0.5863
vt 0.8741 0.8324
vt 0.8741 0.8157
vt 0.8155 0.8157
vt 0.8155 0.8324
vt 0.4393 0.7362
vt 0.4990 0.7362
vt 0.4990 0.6774
vt 0.4393 0.6774
vt 0.5579 0.7479
vt 0.5579 0.6777
vt 0.5040 0.6777
vt 0.5040 0.7479
vt 0.0619 0.6643
vt 0.0619 0.5870
vt 0.0006 0.5870
vt 0.0006 0.6643
vt 0.0619 0.6643
vt 0.0619 0.5870
vt 0.0006 0.5870
vt 0.0006 0.6643
vt 0.0619 0.6643
vt 0.0619 0.5870
vt 0.0006 0.5870
vt 0.0006 0.6643
vt 0.0619 0.6643
vt 0.0619 0.5870
vt 0.0006 0.5870
vt 0.0006 0.6643
vt 0.0619 0.6643
vt 0.0619 0.5870
vt 0.0006 0.5870
vt 0.0006 0.6643
vt 0.0619 0.6643
vt 0.0619 0.5870
vt 0.0006 0.5870
vt 0.0006 0.6643
vt 0.0619 0.6643
vt 0.0619 0.5870
vt 0.0006 0.5870
vt 0.0006 0.6643
vt 0.0619 0.6643
vt 0.0619 0.5870
vt 0.0006 0.5870
vt 0.0006 0.6643
vt 0.0619 0.6643
vt 0.0619 0.5870
vt 0.0006 0.5870
vt 0.0006 0.6643
vt 0.0619 0.6643
vt 0.0619 0.5870
vt 0.0006 0.5870
vt 0.0006 0.6643
vt 0.0619 0.6643
vt 0.0619 0.5870
vt 0.0006 0.5870
vt 0.0006 0.6643
vt 0.0619 0.6643
vt 0.0619 0.5870
vt 0.0006 0.5870
vt 0.0006 0.6643
vt 0.0619 0.6643
vt 0.0619 0.5870
vt 0.0006 0.5870
vt 0.0006 0.6643
vt 0.0619 0.6643
vt 0.0619 0.5870
vt 0.0006 0.5870
vt 0.0006 0.6643
vt 0.0619 0.6643
vt 0.0619 0.5870
vt 0.0006 0.5870
vt 0.0006 0.6643
vt 0.0619 0.6643
vt 0.0619 0.5870
vt 0.0006 0.5870
vt 0.0006 0.6643
vt 0.0619 0.6643
vt 0.0619 0.5870
vt 0.0006 0.5870
vt 0.0006 0.6643
vt 0.0619 0.6643
vt 0.0619 0.5870
vt 0.0006 0.5870
vt 0.0006 0.6643
vt 0.0619 0.6643
vt 0.0619 0.5870
vt 0.0006 0.5870
vt 0.0006 0.6643
vt 0.0619 0.6643
vt 0.0619 0.5870
vt 0.0006 0.5870
vt 0.0006 0.6643
vt 0.0619 0.6643
vt 0.0619 0.5870
vt 0.0006 0.5870
vt 0.0006 0.6643
vt 0.0619 0.6643
vt 0.0619 0.5870
vt 0.0006 0.5870
vt 0.0006 0.6643
vt 0.0619 0.6643
vt 0.0619 0.5870
vt 0.0006 0.5870
vt 0.0006 0.6643
vt 0.0619 0.6643
vt 0.0619 0.5870
vt 0.0006 0.5870
vt 0.0006 0.6643
vt 0.0619 0.6643
vt 0.0619 0.5870
vt 0.0006 0.5870
vt 0.0006 0.6643
vt 0.0619 0.6643
vt 0.0619 0.5870
vt 0.0006 0.5870
vt 0.0006 0.6643
vt 0.0619 0.6643
vt 0.0619 0.5870
vt 0.0006 0.5870
vt 0.0006 0.6643
vt 0.0619 0.6643
vt 0.0619 0.5870
vt 0.0006 0.5870
vt 0.0006 0.6643
vt 0.0619 0.6643
vt 0.0619 0.5870
vt 0.0006 0.5870
vt 0.0006 0.6643
vt 0.0619 0.6643
vt 0.0619 0.5870
vt 0.0006 0.5870
vt 0.0006 0.6643
vt 0.0619 0.6643
vt 0.0619 0.5870
vt 0.0006 0.5870
vt 0.0006 0.6643
vt 0.0619 0.6643
vt 0.0619 0.5870
vt 0.0006 0.5870
vt 0.0006 0.6643
vt 0.0619 0.6643
vt 0.0619 0.5870
vt 0.0006 0.5870
vt 0.0006 0.6643
vt 0.0619 0.6643
vt 0.0619 0.5870
vt 0.0006 0.5870
vt 0.0006 0.6643
vt 0.0619 0.6643
vt 0.0619 0.5870
vt 0.0006 0.5870
vt 0.0006 0.6643
vt 0.0619 0.6643
vt 0.0619 0.5870
vt 0.0006 0.5870
vt 0.0006 0.6643
vt 0.0619 0.6643
vt 0.0619 0.5870
vt 0.0006 0.5870
vt 0.0006 0.6643
vt 0.0619 0.6643
vt 0.0619 0.5870
vt 0.0006 0.5870
vt 0.0006 0.6643
vt 0.0619 0.6643
vt 0.0619 0.5870
vt 0.0006 0.5870
vt 0.0006 0.6643
vn 0.0000 1.0000 0.0000
vn 0.0000 -0.7071 0.7071
vn 0.0000 -0.0000 1.0000
vn 0.0000 0.4179 0.9085
vn 0.0000 -0.3469 0.9379
s 1
f 357/1/1 358/2/1 359/3/1 360/4/1
f 1/5/2 2/6/2 3/7/3 4/8/3
f 5/9/3 6/10/4 7/11/4 8/12/3
f 9/13/5 10/14/5 7/15/4 6/16/4
f 1/17/2 10/18/5 9/19/5 2/20/2
f 11/21/2 12/22/2 13/23/3 14/24/3
f 15/25/3 16/26/4 17/27/4 18/28/3
f 19/29/5 20/30/5 17/31/4 16/32/4
f 11/33/2 20/34/5 19/35/5 12/36/2
f 21/37/2 22/38/2 23/39/3 24/40/3
f 25/41/3 26/42/4 27/43/4 28/44/3
f 29/45/5 30/46/5 27/47/4 26/48/4
f 21/49/2 30/50/5 29/51/5 22/52/2
f 31/53/2 32/54/2 33/55/3 34/56/3
f 35/57/3 36/58/4 37/59/4 38/60/3
f 39/61/5 40/62/5 37/63/4 36/64/4
f 31/65/2 40/66/5 39/67/5 32/68/2
f 41/69/2 42/70/2 43/71/3 44/72/3
f 45/73/3 46/74/4 47/75/4 48/76/3
f 49/77/5 50/78/5 47/79/4 46/80/4
f 41/81/2 50/82/5 49/83/5 42/84/2
f 51/85/2 52/86/2 53/87/3 54/88/3
f 55/89/3 56/90/4 57/91/4 58/92/3
f 59/93/5 60/94/5 57/95/4 56/96/4
f 51/97/2 60/98/5 59/99/5 52/100/2
f 61/101/2 62/102/2 63/103/3 64/104/3
f 65/105/3 66/106/4 67/107/4 68/108/3
f 69/109/5 70/110/5 67/111/4 66/112/4
f 61/113/2 70/114/5 69/115/5 62/116/2
f 71/117/2 72/118/2 73/119/3 74/120/3
f 75/121/3 76/122/4 77/123/4 78/124/3
f 79/125/5 80/126/5 77/127/4 76/128/4
f 71/129/2 80/130/5 79/131/5 72/132/2
f 81/133/2 82/134/2 83/135/3 84/136/3
f 85/137/3 86/138/4 87/139/4 88/140/3
f 89/141/5 90/142/5 87/143/4 86/144/4
f 81/145/2 90/146/5 89/147/5 82/148/2
f 91/149/2 92/150/2 93/151/3 94/152/3
f 95/153/3 96/154/4 97/155/4 98/156/3
f 99/157/5 100/158/5 97/159/4 96/160/4
f 91/161/2 100/162/5 99/163/5 92/164/2
f 101/165/2 102/166/2 103/167/3 104/168/3
f 105/169/3 106/170/4 107/171/4 108/172/3
f 109/173/5 110/174/5 107/175/4 106/176/4
f 101/177/2 110/178/5 109/179/5 102/180/2
f 111/181/2 112/182/2 113/183/3 114/184/3
f 115/185/3 116/186/4 117/187/4 118/188/3
f 119/189/5 120/190/5 117/191/4 116/192/4
f 111/193/2 120/194/5 119/195/5 112/196/2
f 121/197/2 122/198/2 123/199/3 124/200/3
f 125/201/3 126/202/4 127/203/4 128/204/3
f 129/205/5 130/206/5 127/207/4 126/208/4
f 121/209/2 130/210/5 129/211/5 122/212/2
f 131/213/2 132/214/2 133/215/3 134/216/3
f 135/217/3 136/218/4 137/219/4 138/220/3
f 139/221/5 140/222/5 137/223/4 136/224/4
f 131/225/2 140/226/5 139/227/5 132/228/2
f 141/229/2 142/230/2 143/231/3 144/232/3
f 145/233/3 146/234/4 147/235/4 148/236/3
f 149/237/5 150/238/5 147/239/4 146/240/4
f 141/241/2 150/242/5 149/243/5 142/244/2
f 151/245/2 152/246/2 153/247/3 154/248/3
f 155/249/3 156/250/4 157/251/4 158/252/3
f 159/253/5 160/254/5 157/255/4 156/256/4
f 151/257/2 160/258/5 159/259/5 152/260/2
f 161/261/2 162/262/2 163/263/3 164/264/3
f 165/265/3 166/266/4 167/267/4 168/268/3
f 169/269/5 170/270/5 167/271/4 166/272/4
f 161/273/2 170/274/5 169/275/5 162/276/2
f 171/277/2 172/278/2 173/279/3 174/280/3
f 175/281/3 176/282/4 177/283/4 178/284/3
f 179/285/5 180/286/5 177/287/4 176/288/4
f 171/289/2 180/290/5 179/291/5 172/292/2
f 181/293/2 182/294/2 183/295/3 184/296/3
f 185/297/3 186/298/4 187/299/4 188/300/3
f 189/301/5 190/302/5 187/303/4 186/304/4
f 181/305/2 190/306/5 189/307/5 182/308/2
f 191/309/2 192/310/2 193/311/3 194/312/3
f 195/313/3 196/314/4 197/315/4 198/316/3
f 199/317/5 200/318/5 197/319/4 196/320/4
f 191/321/2 200/322/5 199/323/5 192/324/2
f 201/325/1 202/326/1 203/327/1 204/328/1
f 205/329/1 206/330/1 207/331/1 208/332/1
f 209/333/1 210/334/1 211/335/1 212/336/1
f 213/337/1 214/338/1 215/339/1 216/340/1
f 217/341/1 218/342/1 219/343/1 220/344/1
f 221/345/1 222/346/1 223/347/1 224/348/1
f 225/349/1 226/350/1 227/351/1 228/352/1
f 229/353/1 230/354/1 231/355/1 232/356/1
f 233/357/1 234/358/1 235/359/1 236/360/1
f 237/361/1 238/362/1 239/363/1 240/364/1
f 241/365/1 242/366/1 243/367/1 244/368/1
f 245/369/1 246/370/1 247/371/1 248/372/1
f 249/373/1 250/374/1 251/375/1 252/376/1
f 253/377/1 254/378/1 255/379/1 256/380/1
f 257/381/1 258/382/1 259/383/1 260/384/1
f 261/385/1 262/386/1 263/387/1 264/388/1
f 265/389/1 266/390/1 267/391/1 268/392/1
f 269/393/1 270/394/1 271/395/1 272/396/1
f 273/397/1 274/398/1 275/399/1 276/400/1
f 277/401/1 278/402/1 279/403/1 280/404/1
f 281/405/1 282/406/1 283/407/1 284/408/1
f 285/409/1 286/410/1 287/411/1 288/412/1
f 289/413/1 290/414/1 291/415/1 292/416/1
f 293/417/1 294/418/1 295/419/1 296/420/1
f 297/421/1 298/422/1 299/423/1 300/424/1
f 301/425/1 302/426/1 303/427/1 304/428/1
f 305/429/1 306/430/1 307/431/1 308/432/1
f 309/433/1 310/434/1 311/435/1 312/436/1
f 313/437/1 314/438/1 315/439/1 316/440/1
f 317/441/1 318/442/1 319/443/1 320/444/1
f 321/445/1 322/446/1 323/447/1 324/448/1
f 325/449/1 326/450/1 327/451/1 328/452/1
f 329/453/1 330/454/1 331/455/1 332/456/1
f 333/457/1 334/458/1 335/459/1 336/460/1
f 337/461/1 338/462/1 339/463/1 340/464/1
f 341/465/1 342/466/1 343/467/1 344/468/1
f 345/469/1 346/470/1 347/471/1 348/472/1
f 349/473/1 350/474/1 351/475/1 352/476/1
f 353/477/1 354/478/1 355/479/1 356/480/1
